# xmcd CD database file
#
# Track frame offsets:
#	150
#	28498
#	61187
#	91027
#	114299
#	136807
#	170050
#	196016
#	212963
#	239546
#	257147
#	286930
#	316216
#
# Disc length: 4567 seconds
#
# Revision: 0
# Processed by: cddbd v1.5.1PL0 Copyright (c) Steve Scherf et al.
# Submitted via: CDex 1.50
#
DISCID=b711d50d
DTITLE=Paddy Korn - Prediction
DYEAR=2003
DGENRE=Jazz
TTITLE0=Get Out Of My Life WOman
TTITLE1=Childrens's World
TTITLE2=Move On You
TTITLE3=Cissy Strut
TTITLE4=Dizzy
TTITLE5=My Baby's Coming Home
TTITLE6=Come To Me
TTITLE7=Girl I Wanna Dance With You
TTITLE8=Rock Me Baby
TTITLE9=S.P.I.
TTITLE10=Fuss'n'Fight
TTITLE11=Breacking Up Somebody's Home
TTITLE12=Turn Me Loose
EXTD=YEAR: 2003
EXTT0=
EXTT1=
EXTT2=
EXTT3=
EXTT4=
EXTT5=
EXTT6=
EXTT7=
EXTT8=
EXTT9=
EXTT10=
EXTT11=
EXTT12=
PLAYORDER=
